<?xml version="1.0"?>
<svg xmlns="http://www.w3.org/2000/svg" width="80" height="80" viewBox="0 0 80 80" fill="none">
<path d="M40 80C62.0913 80 79.9999 62.0914 79.9999 40C79.9999 17.9086 62.0913 0 40 0C17.9086 0 0 17.9086 0 40C0 62.0914 17.9086 80 40 80Z" fill="#00349A"/>
<path fill-rule="evenodd" clip-rule="evenodd" d="M38.8927 9.34455H35.5115L38.2634 11.3552L37.1968 14.5552L39.9434 12.5819L42.6686 14.5819L41.602 11.3552L44.3752 9.34455H40.9887L39.9594 6.14453L38.8927 9.34455ZM53.4792 13.4139H50.0979L52.8392 15.3712L51.7726 18.5712L54.5192 16.5979L57.2499 18.5925L56.2152 15.3925L58.9619 13.4139H55.5752L54.5459 10.2139L53.4792 13.4139ZM35.5898 67.4778H38.9712L40.0378 64.2778L41.0672 67.4778H44.4539L41.7072 69.4565L42.7419 72.6565L40.0005 70.7152L37.2538 72.6938L38.3205 69.4938L35.5898 67.4778ZM53.4492 63.6805H50.0625L52.8038 65.6911L51.7372 68.8911L54.4892 66.8805L57.2199 68.8804L56.1905 65.6538L58.9319 63.6805H55.5505L54.5159 60.4805L53.4492 63.6805ZM60.801 52.9285H64.1876L65.2543 49.7285L66.2889 52.9285H69.6702L66.9396 54.9552L67.9689 58.1552L65.2383 56.1552L62.497 58.1552L63.5636 54.9552L60.801 52.9285ZM68.1157 38.2832H64.7344L67.4811 40.2406L66.4144 43.4406L69.1611 41.4619L71.8864 43.4619L70.8571 40.2619L73.6038 38.2832H70.2171L69.1824 35.0833L68.1157 38.2832ZM61.043 23.7071H64.4243L65.491 20.5071L66.5256 23.7071H69.907L67.1603 25.6857L68.195 28.8857L65.4643 26.8857L62.7176 28.8644L63.7843 25.6644L61.043 23.7071ZM24.4446 63.6805H21.0579L23.81 65.6538L22.7433 68.8538L25.4847 66.8805L28.2154 68.8805L27.1807 65.6538L29.9275 63.6805H26.546L25.5113 60.4805L24.4446 63.6805ZM10.4607 52.8592H13.8474L14.9141 49.6592L15.9487 52.8592H19.3301L16.5887 54.8378L17.6181 58.0378L14.8874 56.0378L12.146 58.0165L13.2127 54.8165L10.4607 52.8592ZM9.85792 38.2832H6.47656L9.21258 40.2938L8.14591 43.4938L10.8926 41.5152L13.6179 43.4938L12.5886 40.2938L15.3459 38.2832H11.9593L10.9246 35.0832L9.85792 38.2832ZM10.4607 23.7072H13.8474L14.9141 20.5072L15.9487 23.7072H19.3301L16.5887 25.6859L17.6181 28.8859L14.8874 26.8859L12.146 28.8645L13.2127 25.6645L10.4607 23.7072ZM24.2382 13.4139H20.8516L23.6036 15.3712L22.5369 18.5712L25.2783 16.5979L28.0089 18.5925L26.9796 15.3925L29.7209 13.4139H26.3396L25.3049 10.2139L24.2382 13.4139Z" fill="#FFCD02"/>
<path fill-rule="evenodd" clip-rule="evenodd" d="M27.0188 44.607C26.5669 44.8006 26.081 44.9022 25.5894 44.9057C24.8886 44.9161 24.1932 44.7817 23.5467 44.511C22.9643 44.2695 22.4405 43.9057 22.0107 43.4444C21.5862 42.972 21.2614 42.4187 21.056 41.8177C20.8281 41.1702 20.7144 40.4881 20.72 39.8017C20.7131 39.1013 20.8268 38.4049 21.056 37.743C21.2613 37.1324 21.5858 36.5686 22.0107 36.0843C22.4341 35.6052 22.9588 35.2263 23.5467 34.975C24.1929 34.6875 24.8928 34.5402 25.6001 34.543C26.1013 34.5437 26.5995 34.621 27.0774 34.7723C27.5426 34.9216 27.9791 35.1488 28.3681 35.4443C28.7592 35.7433 29.0873 36.1167 29.3335 36.543C29.4588 36.759 29.5068 36.727 29.5308 36.711C29.5359 36.7076 29.5399 36.7049 29.5434 36.7055C29.5561 36.7077 29.561 36.7547 29.5841 36.975L29.5841 36.975L27.7121 38.0417C27.6064 37.5548 27.3302 37.1217 26.9334 36.8203C26.5503 36.5291 26.0813 36.3733 25.6001 36.3777C25.1666 36.3626 24.7367 36.46 24.3521 36.6603C24.0164 36.8426 23.7307 37.1045 23.5201 37.423C23.3039 37.7485 23.1468 38.1096 23.056 38.4897C22.959 38.904 22.9107 39.3282 22.912 39.7537C22.9113 40.1616 22.9596 40.568 23.056 40.9644C23.1449 41.345 23.3021 41.7065 23.5201 42.031C23.7339 42.3454 24.019 42.6049 24.3521 42.7884C24.7376 42.9863 25.1669 43.0835 25.6001 43.071C26.2036 43.1347 26.8056 42.9384 27.2556 42.5313C27.7056 42.1241 27.9608 41.5445 27.9574 40.9377H25.7547V39.3377H29.9148V44.671H28.5281L28.3094 43.5457C27.9768 44.0038 27.5325 44.3692 27.0188 44.607ZM35.5216 34.7724C36.1287 34.7669 36.732 34.8698 37.3029 35.0764C37.8404 35.2747 38.3281 35.5877 38.7323 35.9937C39.1506 36.4302 39.4722 36.9499 39.6763 37.519C39.9131 38.2049 40.0286 38.9268 40.0176 39.6524C40.0223 40.3272 39.9289 40.9991 39.7403 41.647C39.5726 42.2327 39.2857 42.7774 38.8976 43.247C38.5197 43.705 38.0416 44.07 37.5002 44.3137C36.8759 44.5823 36.2011 44.7133 35.5216 44.6977H31.2549V34.7724H35.5216ZM36.2681 42.687C35.9799 42.7871 35.6772 42.8393 35.3721 42.8416H33.4307V36.5964H34.9827C35.4427 36.5833 35.901 36.6594 36.3321 36.8204C36.6632 36.9579 36.9534 37.1783 37.1748 37.4604C37.4075 37.7666 37.5713 38.1195 37.6548 38.495C37.7556 38.9376 37.8039 39.3905 37.7988 39.8443C37.8104 40.3151 37.7401 40.7843 37.5908 41.231C37.4817 41.5734 37.2997 41.8882 37.0575 42.1536C36.8414 42.3927 36.5705 42.5757 36.2681 42.687ZM46.0321 34.687C46.5594 34.6712 47.0837 34.7714 47.5681 34.9803C47.9651 35.1548 48.3172 35.4174 48.5975 35.7483C48.8599 36.0611 49.0559 36.424 49.1735 36.815C49.4151 37.6422 49.4151 38.5212 49.1735 39.3483C49.0586 39.7501 48.8626 40.124 48.5975 40.447C48.3142 40.7747 47.963 41.0368 47.5681 41.215C47.0825 41.4195 46.5588 41.5177 46.0321 41.503H43.8133V44.7937H41.6799V34.687H46.0321ZM46.1548 39.647C45.9239 39.6857 45.6902 39.7053 45.4561 39.7057H43.8135V36.5056H45.4561C45.6905 36.5049 45.9244 36.5264 46.1548 36.5696C46.366 36.6037 46.5677 36.6818 46.7468 36.7989C46.9239 36.9218 47.0656 37.0892 47.1574 37.2843C47.3639 37.8124 47.3639 38.3989 47.1574 38.927C47.0669 39.1229 46.925 39.2906 46.7468 39.4123C46.568 39.531 46.3663 39.611 46.1548 39.647Z" fill="white"/>
<path d="M55.9321 39.4297L59.1482 44.7897H57.1268L54.8867 40.8057L55.9321 39.4297Z" fill="white"/>
<path fill-rule="evenodd" clip-rule="evenodd" d="M56.8919 34.9805C56.4075 34.7715 55.8832 34.6714 55.3559 34.6872H51.0039V44.7938H53.1372V41.5032H55.3559C55.8826 41.5179 56.4063 41.4197 56.8919 41.2152C57.2867 41.037 57.638 40.7749 57.9212 40.4472C58.1844 40.1229 58.3802 39.7494 58.4972 39.3485C58.7389 38.5213 58.7389 37.6423 58.4972 36.8152C58.3763 36.4256 58.1807 36.0633 57.9212 35.7485C57.641 35.4176 57.2889 35.1549 56.8919 34.9805ZM55.4787 39.6472C55.2478 39.6859 55.0141 39.7055 54.78 39.7058L53.1372 39.7112V36.5112H54.78C55.0142 36.5088 55.2481 36.5284 55.4787 36.5698C55.6899 36.6039 55.8916 36.6821 56.0707 36.7992C56.2464 36.9237 56.3877 37.0906 56.4814 37.2845C56.6878 37.8126 56.6878 38.3991 56.4814 38.9272C56.3893 39.1221 56.2477 39.2895 56.0707 39.4125C55.8919 39.5312 55.6902 39.6112 55.4787 39.6472Z" fill="white"/>
</svg>
